G04 (created by PCBNEW-RS274X (2012-jan-04)-stable) date Fri 04 May 2012 01:52:08 PM EEST*
G01*
G70*
G90*
%MOIN*%
G04 Gerber Fmt 3.4, Leading zero omitted, Abs format*
%FSLAX34Y34*%
G04 APERTURE LIST*
%ADD10C,0.006000*%
%ADD11R,0.098400X0.019700*%
%ADD12R,0.098400X0.078700*%
%ADD13C,0.035400*%
%ADD14R,0.016000X0.060000*%
%ADD15R,0.060000X0.016000*%
%ADD16R,0.118100X0.051200*%
%ADD17R,0.035000X0.055000*%
%ADD18R,0.055000X0.035000*%
%ADD19R,0.216500X0.078700*%
%ADD20R,0.047200X0.047200*%
%ADD21C,0.590600*%
%ADD22C,0.051200*%
%ADD23R,0.059100X0.039400*%
%ADD24R,0.060000X0.060000*%
%ADD25C,0.060000*%
%ADD26C,0.055100*%
%ADD27C,0.011800*%
%ADD28C,0.010000*%
G04 APERTURE END LIST*
G54D10*
G54D11*
X20500Y-26620D03*
X20500Y-26935D03*
X20500Y-27250D03*
X20500Y-27565D03*
X20500Y-27880D03*
G54D12*
X20500Y-25498D03*
X20500Y-29002D03*
X18335Y-29002D03*
X18335Y-25498D03*
G54D13*
X19516Y-26384D03*
X19516Y-28116D03*
G54D14*
X29528Y-25703D03*
X29213Y-25703D03*
X28898Y-25703D03*
X28583Y-25703D03*
X28268Y-25703D03*
X27953Y-25703D03*
X29843Y-25703D03*
X30158Y-25703D03*
X30473Y-25703D03*
X30788Y-25703D03*
X31103Y-25703D03*
X29528Y-30203D03*
X29213Y-30203D03*
X28898Y-30203D03*
X28583Y-30203D03*
X28268Y-30203D03*
X27953Y-30203D03*
X29843Y-30203D03*
X30158Y-30203D03*
X30473Y-30203D03*
X30788Y-30203D03*
X31103Y-30203D03*
G54D15*
X27278Y-27953D03*
X31778Y-27953D03*
X27278Y-28268D03*
X31778Y-28268D03*
X31778Y-28583D03*
X27278Y-28583D03*
X27278Y-28898D03*
X31778Y-28898D03*
X31778Y-29213D03*
X27278Y-29213D03*
X27278Y-29528D03*
X31778Y-29528D03*
X31778Y-27638D03*
X27278Y-27638D03*
X27278Y-27323D03*
X31778Y-27323D03*
X31778Y-27008D03*
X27278Y-27008D03*
X27278Y-26693D03*
X31778Y-26693D03*
X31778Y-26378D03*
X27278Y-26378D03*
G54D16*
X19079Y-30988D03*
X21079Y-30988D03*
X19079Y-31988D03*
X21079Y-31988D03*
X19079Y-32988D03*
X21079Y-32988D03*
G54D17*
X28131Y-31299D03*
X27381Y-31299D03*
X23838Y-26773D03*
X24588Y-26773D03*
X24588Y-27560D03*
X23838Y-27560D03*
X33090Y-24606D03*
X33840Y-24606D03*
X33090Y-25295D03*
X33840Y-25295D03*
X33090Y-27362D03*
X33840Y-27362D03*
G54D18*
X22343Y-25670D03*
X22343Y-24920D03*
X35531Y-32794D03*
X35531Y-33544D03*
X28642Y-32794D03*
X28642Y-33544D03*
G54D17*
X27775Y-24606D03*
X28525Y-24606D03*
G54D18*
X32677Y-29842D03*
X32677Y-30592D03*
G54D17*
X26359Y-28150D03*
X25609Y-28150D03*
G54D18*
X31398Y-24883D03*
X31398Y-24133D03*
X27067Y-24723D03*
X27067Y-25473D03*
X28937Y-31318D03*
X28937Y-32068D03*
G54D19*
X30237Y-33169D03*
X33937Y-33169D03*
G54D20*
X35118Y-24803D03*
X35944Y-24803D03*
X35118Y-24016D03*
X35944Y-24016D03*
G54D21*
X34252Y-19685D03*
X27559Y-19685D03*
X20866Y-19685D03*
G54D22*
X40945Y-31496D03*
X40945Y-27559D03*
X40945Y-23622D03*
X40945Y-19685D03*
G54D17*
X33090Y-26673D03*
X33840Y-26673D03*
X33090Y-25984D03*
X33840Y-25984D03*
G54D23*
X34646Y-25787D03*
X34646Y-26476D03*
X34646Y-27165D03*
X36615Y-25788D03*
X36615Y-26477D03*
X36615Y-27166D03*
G54D18*
X26083Y-24723D03*
X26083Y-25473D03*
X29232Y-24588D03*
X29232Y-23838D03*
X29921Y-24588D03*
X29921Y-23838D03*
X30610Y-24588D03*
X30610Y-23838D03*
G54D17*
X34861Y-28150D03*
X35611Y-28150D03*
X33483Y-28445D03*
X34233Y-28445D03*
X34861Y-29134D03*
X35611Y-29134D03*
X33483Y-29429D03*
X34233Y-29429D03*
G54D24*
X37500Y-32000D03*
G54D25*
X37500Y-33000D03*
X37500Y-34000D03*
G54D26*
X32185Y-24114D03*
X22047Y-32972D03*
X26969Y-24016D03*
X32283Y-31890D03*
X28642Y-26673D03*
X36614Y-24409D03*
X30413Y-26673D03*
X30807Y-28051D03*
X32087Y-34055D03*
X28642Y-34055D03*
X28150Y-32087D03*
X29429Y-28740D03*
X28150Y-27657D03*
X35531Y-34055D03*
X21555Y-27854D03*
X31890Y-30315D03*
X23031Y-24902D03*
X35630Y-26575D03*
G54D27*
X28131Y-31299D02*
X28918Y-31299D01*
X30493Y-29213D02*
X30217Y-28937D01*
X32677Y-29527D02*
X32363Y-29213D01*
X28918Y-31299D02*
X28937Y-31318D01*
X28583Y-30203D02*
X28583Y-29666D01*
X27278Y-26693D02*
X27874Y-26693D01*
X30217Y-28937D02*
X30217Y-27657D01*
X21968Y-25670D02*
X22343Y-25670D01*
X31103Y-26771D02*
X30217Y-27657D01*
X30217Y-27657D02*
X28642Y-27657D01*
X27874Y-26693D02*
X28642Y-27461D01*
X28326Y-29409D02*
X28326Y-28268D01*
X31778Y-29213D02*
X30493Y-29213D01*
X24409Y-24723D02*
X24096Y-24723D01*
X28642Y-27657D02*
X28642Y-27952D01*
X28642Y-27952D02*
X28326Y-28268D01*
X20500Y-26620D02*
X19936Y-26620D01*
X20555Y-30988D02*
X21079Y-30988D01*
X19094Y-29527D02*
X20555Y-30988D01*
X19094Y-27462D02*
X19094Y-29527D01*
X19936Y-26620D02*
X19094Y-27462D01*
X20500Y-26620D02*
X21018Y-26620D01*
X28326Y-28268D02*
X27278Y-28268D01*
X28642Y-27461D02*
X28642Y-27657D01*
X23819Y-25670D02*
X25374Y-25670D01*
X21018Y-26620D02*
X21968Y-25670D01*
X23819Y-25000D02*
X23819Y-25670D01*
X24096Y-24723D02*
X23819Y-25000D01*
X23819Y-25670D02*
X23819Y-25689D01*
X23819Y-25689D02*
X23819Y-25670D01*
X23425Y-25670D02*
X23819Y-25670D01*
X31103Y-25703D02*
X31103Y-26771D01*
X26083Y-25984D02*
X26792Y-26693D01*
X25374Y-25670D02*
X25688Y-25984D01*
X25688Y-25984D02*
X26083Y-25984D01*
X26792Y-26693D02*
X27278Y-26693D01*
X32363Y-29213D02*
X31778Y-29213D01*
X28583Y-29666D02*
X28326Y-29409D01*
X31103Y-24982D02*
X31398Y-24883D01*
X28583Y-30964D02*
X28937Y-31318D01*
X31103Y-25703D02*
X31103Y-24982D01*
X23425Y-25670D02*
X22343Y-25670D01*
X32677Y-29842D02*
X32677Y-29527D01*
X23445Y-25670D02*
X23425Y-25670D01*
X24409Y-24723D02*
X24392Y-24723D01*
X26083Y-24723D02*
X24409Y-24723D01*
X28583Y-30203D02*
X28583Y-30964D01*
X26672Y-29528D02*
X23720Y-32480D01*
X18209Y-32283D02*
X18209Y-31103D01*
X27278Y-29528D02*
X26672Y-29528D01*
X18324Y-30988D02*
X19079Y-30988D01*
X23720Y-32480D02*
X18406Y-32480D01*
X18406Y-32480D02*
X18209Y-32283D01*
X18209Y-31103D02*
X18324Y-30988D01*
X21079Y-31988D02*
X23820Y-31988D01*
X26595Y-29213D02*
X27278Y-29213D01*
X23820Y-31988D02*
X26595Y-29213D01*
X28268Y-30591D02*
X28150Y-30709D01*
X27381Y-31969D02*
X27381Y-31299D01*
X25787Y-33563D02*
X27381Y-31969D01*
X19079Y-33056D02*
X19586Y-33563D01*
X28268Y-30203D02*
X28268Y-30591D01*
X27381Y-30986D02*
X27381Y-31299D01*
X28150Y-30709D02*
X27658Y-30709D01*
X19586Y-33563D02*
X25787Y-33563D01*
X27658Y-30709D02*
X27381Y-30986D01*
X19079Y-32988D02*
X19079Y-33056D01*
X20079Y-31496D02*
X23917Y-31496D01*
X19587Y-31988D02*
X20079Y-31496D01*
X19079Y-31988D02*
X19587Y-31988D01*
X26515Y-28898D02*
X27278Y-28898D01*
X23917Y-31496D02*
X26515Y-28898D01*
X31778Y-25407D02*
X32579Y-24606D01*
X31778Y-26378D02*
X31778Y-25407D01*
X32579Y-24606D02*
X33090Y-24606D01*
X32165Y-26693D02*
X31778Y-26693D01*
X32283Y-25492D02*
X32283Y-26575D01*
X32283Y-26575D02*
X32165Y-26693D01*
X32480Y-25295D02*
X32283Y-25492D01*
X33090Y-25295D02*
X32480Y-25295D01*
X32677Y-25984D02*
X33090Y-25984D01*
X31778Y-27008D02*
X32244Y-27008D01*
X32503Y-26749D02*
X32503Y-26158D01*
X32503Y-26158D02*
X32677Y-25984D01*
X32244Y-27008D02*
X32503Y-26749D01*
X32814Y-27638D02*
X33090Y-27362D01*
X31778Y-27638D02*
X32814Y-27638D01*
X31778Y-27323D02*
X32322Y-27323D01*
X32322Y-27323D02*
X32972Y-26673D01*
X32972Y-26673D02*
X33090Y-26673D01*
X37598Y-27658D02*
X37598Y-21260D01*
X37598Y-21260D02*
X39173Y-19685D01*
X37106Y-28150D02*
X37598Y-27658D01*
X39173Y-19685D02*
X40945Y-19685D01*
X35611Y-28150D02*
X37106Y-28150D01*
X38780Y-23622D02*
X38091Y-24311D01*
X34449Y-28642D02*
X37303Y-28642D01*
X38091Y-24311D02*
X38091Y-27854D01*
X38091Y-27854D02*
X37402Y-28543D01*
X40945Y-23622D02*
X38780Y-23622D01*
X37303Y-28642D02*
X37402Y-28543D01*
X34233Y-28445D02*
X34252Y-28445D01*
X34252Y-28445D02*
X34449Y-28642D01*
X38386Y-29134D02*
X39961Y-27559D01*
X39961Y-27559D02*
X40945Y-27559D01*
X35611Y-29134D02*
X38386Y-29134D01*
X38090Y-30118D02*
X34922Y-30118D01*
X40945Y-31496D02*
X39468Y-31496D01*
X34922Y-30118D02*
X34233Y-29429D01*
X39468Y-31496D02*
X38090Y-30118D01*
X32087Y-34055D02*
X28642Y-34055D01*
X27971Y-24822D02*
X27775Y-24606D01*
X28169Y-32068D02*
X28150Y-32087D01*
X27278Y-27638D02*
X28032Y-27638D01*
X36615Y-27166D02*
X36615Y-26477D01*
X31674Y-24133D02*
X32185Y-24114D01*
X25807Y-27638D02*
X25609Y-27836D01*
X25609Y-27836D02*
X25609Y-28150D01*
X28268Y-25119D02*
X27971Y-24822D01*
X36615Y-25474D02*
X35944Y-24803D01*
X28445Y-26673D02*
X28642Y-26673D01*
X20500Y-27880D02*
X21529Y-27880D01*
X31398Y-24133D02*
X31674Y-24133D01*
X21529Y-27880D02*
X21555Y-27854D01*
X31778Y-30203D02*
X31890Y-30315D01*
X28268Y-26496D02*
X28445Y-26673D01*
X36615Y-26477D02*
X36615Y-25788D01*
X21079Y-32988D02*
X22031Y-32988D01*
X28937Y-32068D02*
X28169Y-32068D01*
X32677Y-30592D02*
X31909Y-30296D01*
X27278Y-27638D02*
X25807Y-27638D01*
X28032Y-27638D02*
X28150Y-27657D01*
X22031Y-32988D02*
X22047Y-32972D01*
X22343Y-24920D02*
X23013Y-24920D01*
X35728Y-26477D02*
X35630Y-26575D01*
X28898Y-29567D02*
X29429Y-28740D01*
X35944Y-24409D02*
X36614Y-24409D01*
X27067Y-24705D02*
X26969Y-24016D01*
X35531Y-33544D02*
X35531Y-34055D01*
X28898Y-29567D02*
X28898Y-30203D01*
X29429Y-28838D02*
X29429Y-28740D01*
X31778Y-29528D02*
X30119Y-29528D01*
X30119Y-29528D02*
X29429Y-28838D01*
X28642Y-34055D02*
X28642Y-33544D01*
X31778Y-30203D02*
X31778Y-29528D01*
X30788Y-26359D02*
X30413Y-26673D01*
X36615Y-26477D02*
X35728Y-26477D01*
X27067Y-24723D02*
X27067Y-24705D01*
X30788Y-25703D02*
X30788Y-26359D01*
X36615Y-25788D02*
X36615Y-25474D01*
X23013Y-24920D02*
X23031Y-24902D01*
X27067Y-24723D02*
X27854Y-24723D01*
X28268Y-25703D02*
X28268Y-26496D01*
X28268Y-25703D02*
X28268Y-25119D01*
X35944Y-24409D02*
X35944Y-24803D01*
X27854Y-24723D02*
X27775Y-24606D01*
X35944Y-24016D02*
X35944Y-24409D01*
X31909Y-30296D02*
X31890Y-30315D01*
X35531Y-32794D02*
X34312Y-32794D01*
X29528Y-30512D02*
X31398Y-32382D01*
X33937Y-32657D02*
X33937Y-33169D01*
X29528Y-30203D02*
X29528Y-30512D01*
X33662Y-32382D02*
X33937Y-32657D01*
X31398Y-32382D02*
X33662Y-32382D01*
X34312Y-32794D02*
X33937Y-33169D01*
X28642Y-32794D02*
X29862Y-32794D01*
X29921Y-31299D02*
X29921Y-32853D01*
X29213Y-30203D02*
X29213Y-30591D01*
X29921Y-32853D02*
X30237Y-33169D01*
X29862Y-32794D02*
X30237Y-33169D01*
X29213Y-30591D02*
X29921Y-31299D01*
X34037Y-26476D02*
X33840Y-26673D01*
X34646Y-26476D02*
X34037Y-26476D01*
X32539Y-28898D02*
X33070Y-29429D01*
X33070Y-29429D02*
X33483Y-29429D01*
X31778Y-28898D02*
X32539Y-28898D01*
X29843Y-25703D02*
X29843Y-25315D01*
X29232Y-24704D02*
X29232Y-24588D01*
X29843Y-25315D02*
X29232Y-24704D01*
X30158Y-25703D02*
X30158Y-25237D01*
X30158Y-25237D02*
X29921Y-25000D01*
X29921Y-25000D02*
X29921Y-24588D01*
X31778Y-28268D02*
X33306Y-28268D01*
X33306Y-28268D02*
X33483Y-28445D01*
X30473Y-25137D02*
X30610Y-25000D01*
X30610Y-25000D02*
X30610Y-24588D01*
X30473Y-25703D02*
X30473Y-25137D01*
X27933Y-25473D02*
X27067Y-25473D01*
X27953Y-25493D02*
X27933Y-25473D01*
X27953Y-25703D02*
X27953Y-25493D01*
X26083Y-25473D02*
X27067Y-25473D01*
X28583Y-24744D02*
X28525Y-24606D01*
X28583Y-25703D02*
X28583Y-24744D01*
X27278Y-27953D02*
X26556Y-27953D01*
X26556Y-27953D02*
X26359Y-28150D01*
X29921Y-23838D02*
X29921Y-22047D01*
X29921Y-22047D02*
X27559Y-19685D01*
X29232Y-23838D02*
X29232Y-23524D01*
X28838Y-23130D02*
X24311Y-23130D01*
X29232Y-23524D02*
X28838Y-23130D01*
X24311Y-23130D02*
X20866Y-19685D01*
X34646Y-24803D02*
X34154Y-25295D01*
X35118Y-24803D02*
X34646Y-24803D01*
X34154Y-25295D02*
X33840Y-25295D01*
X34154Y-24606D02*
X33840Y-24606D01*
X35118Y-24016D02*
X34744Y-24016D01*
X34744Y-24016D02*
X34154Y-24606D01*
X30610Y-23327D02*
X34252Y-19685D01*
X30610Y-23838D02*
X30610Y-23327D01*
X36602Y-31102D02*
X37500Y-32000D01*
X31200Y-31102D02*
X36602Y-31102D01*
X30788Y-30203D02*
X30788Y-30690D01*
X30788Y-30690D02*
X31200Y-31102D01*
X36811Y-32086D02*
X36811Y-32775D01*
X37036Y-33000D02*
X37500Y-33000D01*
X30473Y-30203D02*
X30473Y-30768D01*
X36123Y-31398D02*
X36811Y-32086D01*
X31103Y-31398D02*
X36123Y-31398D01*
X30473Y-30768D02*
X31103Y-31398D01*
X36811Y-32775D02*
X37036Y-33000D01*
X25335Y-27008D02*
X25100Y-26773D01*
X27278Y-27008D02*
X25335Y-27008D01*
X25100Y-26773D02*
X24588Y-26773D01*
X23227Y-26773D02*
X23838Y-26773D01*
X23065Y-26935D02*
X23227Y-26773D01*
X20500Y-26935D02*
X23065Y-26935D01*
X23310Y-27560D02*
X23838Y-27560D01*
X23000Y-27250D02*
X23310Y-27560D01*
X20500Y-27250D02*
X23000Y-27250D01*
X25334Y-27323D02*
X25097Y-27560D01*
X27278Y-27323D02*
X25334Y-27323D01*
X25097Y-27560D02*
X24588Y-27560D01*
X34664Y-27953D02*
X34861Y-28150D01*
X31778Y-27953D02*
X34664Y-27953D01*
X34037Y-27165D02*
X33840Y-27362D01*
X34646Y-27165D02*
X34037Y-27165D01*
X34037Y-25787D02*
X33840Y-25984D01*
X34646Y-25787D02*
X34037Y-25787D01*
X34449Y-28937D02*
X34646Y-29134D01*
X31778Y-28583D02*
X32815Y-28583D01*
X34646Y-29134D02*
X34861Y-29134D01*
X33169Y-28937D02*
X34449Y-28937D01*
X32815Y-28583D02*
X33169Y-28937D01*
G54D10*
G36*
X43257Y-21376D02*
X40945Y-20220D01*
X38633Y-21376D01*
X38633Y-17744D01*
X40760Y-16325D01*
X41129Y-16325D01*
X43257Y-17744D01*
X43257Y-21376D01*
X43257Y-21376D01*
G37*
G54D28*
X43257Y-21376D02*
X40945Y-20220D01*
X38633Y-21376D01*
X38633Y-17744D01*
X40760Y-16325D01*
X41129Y-16325D01*
X43257Y-17744D01*
X43257Y-21376D01*
G54D10*
G36*
X43257Y-25313D02*
X40945Y-24157D01*
X38633Y-25313D01*
X38633Y-21685D01*
X40945Y-20528D01*
X43257Y-21685D01*
X43257Y-25313D01*
X43257Y-25313D01*
G37*
G54D28*
X43257Y-25313D02*
X40945Y-24157D01*
X38633Y-25313D01*
X38633Y-21685D01*
X40945Y-20528D01*
X43257Y-21685D01*
X43257Y-25313D01*
G54D10*
G36*
X43257Y-29250D02*
X40945Y-28094D01*
X38633Y-29250D01*
X38633Y-25622D01*
X40945Y-24465D01*
X43257Y-25622D01*
X43257Y-29250D01*
X43257Y-29250D01*
G37*
G54D28*
X43257Y-29250D02*
X40945Y-28094D01*
X38633Y-29250D01*
X38633Y-25622D01*
X40945Y-24465D01*
X43257Y-25622D01*
X43257Y-29250D01*
G54D10*
G36*
X43257Y-33568D02*
X40945Y-32027D01*
X38633Y-33568D01*
X38633Y-29559D01*
X40945Y-28402D01*
X43257Y-29559D01*
X43257Y-33568D01*
X43257Y-33568D01*
G37*
G54D28*
X43257Y-33568D02*
X40945Y-32027D01*
X38633Y-33568D01*
X38633Y-29559D01*
X40945Y-28402D01*
X43257Y-29559D01*
X43257Y-33568D01*
G54D10*
G36*
X36565Y-34265D02*
X35954Y-34265D01*
X35954Y-33668D01*
X35954Y-33420D01*
X35953Y-33340D01*
X35931Y-33286D01*
X35889Y-33245D01*
X35835Y-33222D01*
X35777Y-33222D01*
X35705Y-33221D01*
X35668Y-33258D01*
X35668Y-33457D01*
X35917Y-33457D01*
X35954Y-33420D01*
X35954Y-33668D01*
X35917Y-33631D01*
X35668Y-33631D01*
X35668Y-33830D01*
X35705Y-33867D01*
X35777Y-33866D01*
X35835Y-33866D01*
X35889Y-33843D01*
X35931Y-33802D01*
X35953Y-33748D01*
X35954Y-33668D01*
X35954Y-34265D01*
X28505Y-34265D01*
X28505Y-33830D01*
X28505Y-33631D01*
X28505Y-33457D01*
X28505Y-33258D01*
X28468Y-33221D01*
X28396Y-33222D01*
X28338Y-33222D01*
X28284Y-33245D01*
X28242Y-33286D01*
X28220Y-33340D01*
X28219Y-33420D01*
X28256Y-33457D01*
X28505Y-33457D01*
X28505Y-33631D01*
X28256Y-33631D01*
X28219Y-33668D01*
X28220Y-33748D01*
X28242Y-33802D01*
X28284Y-33843D01*
X28338Y-33866D01*
X28396Y-33866D01*
X28468Y-33867D01*
X28505Y-33830D01*
X28505Y-34265D01*
X28003Y-34265D01*
X28003Y-32530D01*
X28180Y-32530D01*
X28160Y-32578D01*
X28160Y-32660D01*
X28160Y-33010D01*
X28191Y-33086D01*
X28250Y-33144D01*
X28326Y-33176D01*
X28408Y-33176D01*
X28948Y-33176D01*
X28948Y-33222D01*
X28946Y-33222D01*
X28888Y-33222D01*
X28816Y-33221D01*
X28779Y-33258D01*
X28779Y-33457D01*
X28842Y-33457D01*
X28842Y-33631D01*
X28779Y-33631D01*
X28779Y-33830D01*
X28816Y-33867D01*
X28888Y-33866D01*
X28946Y-33866D01*
X29000Y-33843D01*
X29042Y-33802D01*
X29045Y-33794D01*
X29065Y-33794D01*
X29065Y-33748D01*
X29114Y-33769D01*
X29196Y-33769D01*
X31360Y-33769D01*
X31436Y-33738D01*
X31494Y-33679D01*
X31526Y-33603D01*
X31526Y-33521D01*
X31526Y-32735D01*
X31495Y-32659D01*
X31483Y-32648D01*
X32690Y-32648D01*
X32680Y-32659D01*
X32648Y-32735D01*
X32648Y-32817D01*
X32648Y-33603D01*
X32679Y-33679D01*
X32738Y-33737D01*
X32814Y-33769D01*
X32896Y-33769D01*
X35060Y-33769D01*
X35108Y-33748D01*
X35108Y-33794D01*
X35127Y-33794D01*
X35131Y-33802D01*
X35173Y-33843D01*
X35227Y-33866D01*
X35285Y-33866D01*
X35357Y-33867D01*
X35394Y-33830D01*
X35394Y-33631D01*
X35331Y-33631D01*
X35331Y-33457D01*
X35394Y-33457D01*
X35394Y-33258D01*
X35357Y-33221D01*
X35285Y-33222D01*
X35227Y-33222D01*
X35226Y-33222D01*
X35226Y-33176D01*
X35297Y-33176D01*
X35847Y-33176D01*
X35923Y-33145D01*
X35981Y-33086D01*
X36013Y-33010D01*
X36013Y-32928D01*
X36013Y-32578D01*
X35982Y-32502D01*
X35923Y-32444D01*
X35847Y-32412D01*
X35765Y-32412D01*
X35215Y-32412D01*
X35139Y-32443D01*
X35081Y-32502D01*
X35070Y-32528D01*
X34312Y-32528D01*
X34210Y-32548D01*
X34184Y-32564D01*
X34183Y-32555D01*
X34125Y-32469D01*
X34124Y-32468D01*
X33850Y-32194D01*
X33764Y-32136D01*
X33662Y-32116D01*
X31508Y-32116D01*
X31045Y-31652D01*
X31102Y-31663D01*
X31103Y-31664D01*
X33218Y-31664D01*
X33218Y-31743D01*
X36092Y-31743D01*
X36545Y-32196D01*
X36545Y-32775D01*
X36565Y-32877D01*
X36565Y-34265D01*
X36565Y-34265D01*
G37*
G54D28*
X36565Y-34265D02*
X35954Y-34265D01*
X35954Y-33668D01*
X35954Y-33420D01*
X35953Y-33340D01*
X35931Y-33286D01*
X35889Y-33245D01*
X35835Y-33222D01*
X35777Y-33222D01*
X35705Y-33221D01*
X35668Y-33258D01*
X35668Y-33457D01*
X35917Y-33457D01*
X35954Y-33420D01*
X35954Y-33668D01*
X35917Y-33631D01*
X35668Y-33631D01*
X35668Y-33830D01*
X35705Y-33867D01*
X35777Y-33866D01*
X35835Y-33866D01*
X35889Y-33843D01*
X35931Y-33802D01*
X35953Y-33748D01*
X35954Y-33668D01*
X35954Y-34265D01*
X28505Y-34265D01*
X28505Y-33830D01*
X28505Y-33631D01*
X28505Y-33457D01*
X28505Y-33258D01*
X28468Y-33221D01*
X28396Y-33222D01*
X28338Y-33222D01*
X28284Y-33245D01*
X28242Y-33286D01*
X28220Y-33340D01*
X28219Y-33420D01*
X28256Y-33457D01*
X28505Y-33457D01*
X28505Y-33631D01*
X28256Y-33631D01*
X28219Y-33668D01*
X28220Y-33748D01*
X28242Y-33802D01*
X28284Y-33843D01*
X28338Y-33866D01*
X28396Y-33866D01*
X28468Y-33867D01*
X28505Y-33830D01*
X28505Y-34265D01*
X28003Y-34265D01*
X28003Y-32530D01*
X28180Y-32530D01*
X28160Y-32578D01*
X28160Y-32660D01*
X28160Y-33010D01*
X28191Y-33086D01*
X28250Y-33144D01*
X28326Y-33176D01*
X28408Y-33176D01*
X28948Y-33176D01*
X28948Y-33222D01*
X28946Y-33222D01*
X28888Y-33222D01*
X28816Y-33221D01*
X28779Y-33258D01*
X28779Y-33457D01*
X28842Y-33457D01*
X28842Y-33631D01*
X28779Y-33631D01*
X28779Y-33830D01*
X28816Y-33867D01*
X28888Y-33866D01*
X28946Y-33866D01*
X29000Y-33843D01*
X29042Y-33802D01*
X29045Y-33794D01*
X29065Y-33794D01*
X29065Y-33748D01*
X29114Y-33769D01*
X29196Y-33769D01*
X31360Y-33769D01*
X31436Y-33738D01*
X31494Y-33679D01*
X31526Y-33603D01*
X31526Y-33521D01*
X31526Y-32735D01*
X31495Y-32659D01*
X31483Y-32648D01*
X32690Y-32648D01*
X32680Y-32659D01*
X32648Y-32735D01*
X32648Y-32817D01*
X32648Y-33603D01*
X32679Y-33679D01*
X32738Y-33737D01*
X32814Y-33769D01*
X32896Y-33769D01*
X35060Y-33769D01*
X35108Y-33748D01*
X35108Y-33794D01*
X35127Y-33794D01*
X35131Y-33802D01*
X35173Y-33843D01*
X35227Y-33866D01*
X35285Y-33866D01*
X35357Y-33867D01*
X35394Y-33830D01*
X35394Y-33631D01*
X35331Y-33631D01*
X35331Y-33457D01*
X35394Y-33457D01*
X35394Y-33258D01*
X35357Y-33221D01*
X35285Y-33222D01*
X35227Y-33222D01*
X35226Y-33222D01*
X35226Y-33176D01*
X35297Y-33176D01*
X35847Y-33176D01*
X35923Y-33145D01*
X35981Y-33086D01*
X36013Y-33010D01*
X36013Y-32928D01*
X36013Y-32578D01*
X35982Y-32502D01*
X35923Y-32444D01*
X35847Y-32412D01*
X35765Y-32412D01*
X35215Y-32412D01*
X35139Y-32443D01*
X35081Y-32502D01*
X35070Y-32528D01*
X34312Y-32528D01*
X34210Y-32548D01*
X34184Y-32564D01*
X34183Y-32555D01*
X34125Y-32469D01*
X34124Y-32468D01*
X33850Y-32194D01*
X33764Y-32136D01*
X33662Y-32116D01*
X31508Y-32116D01*
X31045Y-31652D01*
X31102Y-31663D01*
X31103Y-31664D01*
X33218Y-31664D01*
X33218Y-31743D01*
X36092Y-31743D01*
X36545Y-32196D01*
X36545Y-32775D01*
X36565Y-32877D01*
X36565Y-34265D01*
G54D10*
G36*
X28376Y-27842D02*
X28216Y-28002D01*
X27904Y-28002D01*
X27904Y-27099D01*
X28376Y-27571D01*
X28376Y-27657D01*
X28376Y-27842D01*
X28376Y-27842D01*
G37*
G54D28*
X28376Y-27842D02*
X28216Y-28002D01*
X27904Y-28002D01*
X27904Y-27099D01*
X28376Y-27571D01*
X28376Y-27657D01*
X28376Y-27842D01*
G54D10*
G36*
X30837Y-26661D02*
X30107Y-27391D01*
X28894Y-27391D01*
X28888Y-27359D01*
X28830Y-27273D01*
X28062Y-26505D01*
X27976Y-26447D01*
X27904Y-26432D01*
X27904Y-26330D01*
X30837Y-26330D01*
X30837Y-26661D01*
X30837Y-26661D01*
G37*
G54D28*
X30837Y-26661D02*
X30107Y-27391D01*
X28894Y-27391D01*
X28888Y-27359D01*
X28830Y-27273D01*
X28062Y-26505D01*
X27976Y-26447D01*
X27904Y-26432D01*
X27904Y-26330D01*
X30837Y-26330D01*
X30837Y-26661D01*
G54D10*
G36*
X31151Y-28947D02*
X30603Y-28947D01*
X30483Y-28827D01*
X30483Y-27767D01*
X31151Y-27099D01*
X31151Y-28947D01*
X31151Y-28947D01*
G37*
G54D28*
X31151Y-28947D02*
X30603Y-28947D01*
X30483Y-28827D01*
X30483Y-27767D01*
X31151Y-27099D01*
X31151Y-28947D01*
G54D10*
G36*
X31151Y-29576D02*
X28831Y-29576D01*
X28829Y-29564D01*
X28771Y-29478D01*
X28592Y-29299D01*
X28592Y-28378D01*
X28829Y-28141D01*
X28829Y-28140D01*
X28830Y-28140D01*
X28887Y-28054D01*
X28888Y-28054D01*
X28907Y-27953D01*
X28908Y-27952D01*
X28908Y-27923D01*
X29951Y-27923D01*
X29951Y-28937D01*
X29971Y-29039D01*
X30029Y-29125D01*
X30305Y-29401D01*
X30391Y-29459D01*
X30493Y-29479D01*
X31151Y-29479D01*
X31151Y-29576D01*
X31151Y-29576D01*
G37*
G54D28*
X31151Y-29576D02*
X28831Y-29576D01*
X28829Y-29564D01*
X28771Y-29478D01*
X28592Y-29299D01*
X28592Y-28378D01*
X28829Y-28141D01*
X28829Y-28140D01*
X28830Y-28140D01*
X28887Y-28054D01*
X28888Y-28054D01*
X28907Y-27953D01*
X28908Y-27952D01*
X28908Y-27923D01*
X29951Y-27923D01*
X29951Y-28937D01*
X29971Y-29039D01*
X30029Y-29125D01*
X30305Y-29401D01*
X30391Y-29459D01*
X30493Y-29479D01*
X31151Y-29479D01*
X31151Y-29576D01*
M02*
