M48
INCH,TZ
T1C0.035
T2C0.040
%
G90
G05
T1
X19516Y-26384
X19516Y-28116
X21555Y-27854
X22047Y-32972
X23031Y-24902
X26969Y-24016
X28150Y-27657
X28150Y-32087
X28642Y-26673
X28642Y-34055
X29429Y-28740
X30413Y-26673
X30807Y-28051
X31890Y-30315
X32087Y-34055
X32185Y-24114
X32283Y-31890
X35531Y-34055
X35630Y-26575
X36614Y-24409
T2
X37500Y-32000
X37500Y-33000
X37500Y-34000
T0
M30
