M48
INCH,TZ
T1C0.035
%
G90
G05
T1
X18701Y-33858
X19587Y-30040
X19587Y-31772
X22047Y-31594
X22835Y-26181
X23721Y-28938
X25787Y-30217
X26280Y-26476
X26280Y-28445
X27264Y-24114
X28051Y-27657
X28248Y-32087
X28346Y-26378
X28642Y-34055
X28937Y-29528
X30807Y-26378
X31693Y-24114
X31890Y-30315
X35531Y-34055
X35630Y-26575
X36614Y-24409
T0
M30
