G04 (created by PCBNEW-RS274X (2012-jan-04)-stable) date Wed 25 Apr 2012 03:41:19 PM EEST*
G01*
G70*
G90*
%MOIN*%
G04 Gerber Fmt 3.4, Leading zero omitted, Abs format*
%FSLAX34Y34*%
G04 APERTURE LIST*
%ADD10C,0.006000*%
%ADD11R,0.098400X0.019700*%
%ADD12R,0.098400X0.078700*%
%ADD13C,0.035400*%
%ADD14R,0.016000X0.060000*%
%ADD15R,0.060000X0.016000*%
%ADD16R,0.051200X0.118100*%
%ADD17R,0.035000X0.055000*%
%ADD18R,0.055000X0.035000*%
%ADD19R,0.216500X0.078700*%
%ADD20R,0.047200X0.047200*%
%ADD21C,0.590600*%
%ADD22R,0.080000X0.144000*%
%ADD23R,0.080000X0.040000*%
%ADD24C,0.051200*%
%ADD25R,0.059100X0.039400*%
%ADD26C,0.055100*%
%ADD27C,0.011800*%
%ADD28C,0.008000*%
%ADD29C,0.010000*%
G04 APERTURE END LIST*
G54D10*
G54D11*
X20571Y-30276D03*
X20571Y-30591D03*
X20571Y-30906D03*
X20571Y-31221D03*
X20571Y-31536D03*
G54D12*
X20571Y-29154D03*
X20571Y-32658D03*
X18406Y-32658D03*
X18406Y-29154D03*
G54D13*
X19587Y-30040D03*
X19587Y-31772D03*
G54D14*
X29528Y-25703D03*
X29213Y-25703D03*
X28898Y-25703D03*
X28583Y-25703D03*
X28268Y-25703D03*
X27953Y-25703D03*
X29843Y-25703D03*
X30158Y-25703D03*
X30473Y-25703D03*
X30788Y-25703D03*
X31103Y-25703D03*
X29528Y-30203D03*
X29213Y-30203D03*
X28898Y-30203D03*
X28583Y-30203D03*
X28268Y-30203D03*
X27953Y-30203D03*
X29843Y-30203D03*
X30158Y-30203D03*
X30473Y-30203D03*
X30788Y-30203D03*
X31103Y-30203D03*
G54D15*
X27278Y-27953D03*
X31778Y-27953D03*
X27278Y-28268D03*
X31778Y-28268D03*
X31778Y-28583D03*
X27278Y-28583D03*
X27278Y-28898D03*
X31778Y-28898D03*
X31778Y-29213D03*
X27278Y-29213D03*
X27278Y-29528D03*
X31778Y-29528D03*
X31778Y-27638D03*
X27278Y-27638D03*
X27278Y-27323D03*
X31778Y-27323D03*
X31778Y-27008D03*
X27278Y-27008D03*
X27278Y-26693D03*
X31778Y-26693D03*
X31778Y-26378D03*
X27278Y-26378D03*
G54D16*
X23606Y-33283D03*
X23606Y-31283D03*
X24606Y-33283D03*
X24606Y-31283D03*
X25606Y-33283D03*
X25606Y-31283D03*
G54D17*
X28131Y-31299D03*
X27381Y-31299D03*
X23838Y-26773D03*
X24588Y-26773D03*
X24588Y-27560D03*
X23838Y-27560D03*
X33090Y-24606D03*
X33840Y-24606D03*
X33090Y-25295D03*
X33840Y-25295D03*
X33090Y-27362D03*
X33840Y-27362D03*
G54D18*
X21949Y-27639D03*
X21949Y-26889D03*
X35531Y-32794D03*
X35531Y-33544D03*
X28642Y-32794D03*
X28642Y-33544D03*
G54D17*
X27971Y-24606D03*
X28721Y-24606D03*
G54D18*
X28937Y-31121D03*
X28937Y-31871D03*
X32677Y-29546D03*
X32677Y-30296D03*
G54D17*
X24588Y-28348D03*
X23838Y-28348D03*
G54D18*
X31004Y-24883D03*
X31004Y-24133D03*
X27165Y-25572D03*
X27165Y-24822D03*
X21949Y-25511D03*
X21949Y-26261D03*
G54D19*
X30237Y-33169D03*
X33937Y-33169D03*
G54D20*
X35118Y-24803D03*
X35944Y-24803D03*
X35118Y-24016D03*
X35944Y-24016D03*
G54D21*
X34252Y-19685D03*
X27559Y-19685D03*
X20866Y-19685D03*
G54D22*
X18385Y-26575D03*
G54D23*
X20985Y-26575D03*
X20985Y-25675D03*
X20985Y-27475D03*
G54D24*
X40945Y-31496D03*
X40945Y-27559D03*
X40945Y-23622D03*
X40945Y-19685D03*
G54D17*
X33090Y-26673D03*
X33840Y-26673D03*
X33090Y-25984D03*
X33840Y-25984D03*
G54D25*
X34646Y-25787D03*
X34646Y-26476D03*
X34646Y-27165D03*
X36615Y-25788D03*
X36615Y-26477D03*
X36615Y-27166D03*
G54D26*
X26280Y-26476D03*
X26280Y-28445D03*
X27264Y-24114D03*
X28937Y-29528D03*
X35531Y-34055D03*
X28642Y-34055D03*
X23721Y-28938D03*
X28248Y-32087D03*
X25787Y-30217D03*
X31890Y-30315D03*
X35630Y-26575D03*
X30807Y-26378D03*
X22835Y-26181D03*
X36614Y-24409D03*
X18701Y-33858D03*
X28051Y-27657D03*
X28346Y-26378D03*
X22047Y-31594D03*
X31693Y-24114D03*
G54D27*
X28309Y-31121D02*
X28131Y-31299D01*
X27855Y-25801D02*
X27953Y-25703D01*
X28583Y-30767D02*
X28937Y-31121D01*
X28583Y-30203D02*
X28583Y-30767D01*
X32677Y-29546D02*
X32677Y-29527D01*
X27953Y-25703D02*
X27296Y-25703D01*
X27296Y-25703D02*
X27165Y-25572D01*
X28583Y-30203D02*
X28583Y-29862D01*
X28544Y-27952D02*
X28544Y-27264D01*
X28445Y-28051D02*
X28544Y-27952D01*
X28445Y-29724D02*
X28445Y-28051D01*
X28583Y-29862D02*
X28445Y-29724D01*
X23606Y-31283D02*
X23606Y-31807D01*
X28937Y-31121D02*
X28309Y-31121D01*
X21752Y-33661D02*
X21457Y-33661D01*
X20388Y-25675D02*
X20985Y-25675D01*
X19882Y-26181D02*
X20388Y-25675D01*
X21457Y-33661D02*
X20276Y-33661D01*
X20276Y-33661D02*
X20275Y-33661D01*
X31778Y-29213D02*
X31280Y-29213D01*
X30217Y-28150D02*
X30217Y-27264D01*
X31280Y-29213D02*
X30217Y-28150D01*
X27165Y-25572D02*
X27165Y-25590D01*
X32677Y-29527D02*
X32363Y-29213D01*
X31299Y-26871D02*
X31299Y-25899D01*
X28839Y-27264D02*
X30217Y-27264D01*
X31299Y-25899D02*
X31103Y-25703D01*
X20276Y-33661D02*
X19881Y-33661D01*
X19587Y-26476D02*
X19882Y-26181D01*
X19587Y-29330D02*
X19587Y-26476D01*
X18996Y-29921D02*
X19587Y-29330D01*
X18996Y-31889D02*
X18996Y-29921D01*
X19291Y-32184D02*
X18996Y-31889D01*
X19291Y-33071D02*
X19291Y-32184D01*
X19881Y-33661D02*
X19291Y-33071D01*
X28544Y-27264D02*
X28839Y-27264D01*
X31103Y-24982D02*
X31004Y-24883D01*
X31103Y-25703D02*
X31103Y-24982D01*
X30906Y-27264D02*
X31299Y-26871D01*
X30217Y-27264D02*
X30906Y-27264D01*
X21949Y-25511D02*
X27104Y-25511D01*
X27104Y-25511D02*
X27165Y-25572D01*
X32363Y-29213D02*
X31778Y-29213D01*
X27854Y-26574D02*
X27855Y-26575D01*
X27855Y-26575D02*
X28544Y-27264D01*
X21949Y-25511D02*
X21149Y-25511D01*
X21149Y-25511D02*
X20985Y-25675D01*
X23606Y-31807D02*
X21752Y-33661D01*
X27855Y-26575D02*
X27855Y-25801D01*
X26497Y-26693D02*
X26280Y-26476D01*
X22164Y-27639D02*
X23819Y-25984D01*
X21949Y-27639D02*
X21149Y-27639D01*
X27278Y-26693D02*
X26497Y-26693D01*
X21693Y-30276D02*
X22047Y-29922D01*
X20571Y-30276D02*
X21693Y-30276D01*
X22047Y-29528D02*
X22047Y-29429D01*
X22047Y-29429D02*
X22047Y-27737D01*
X22047Y-29922D02*
X22047Y-29528D01*
X25788Y-25984D02*
X23819Y-25984D01*
X21949Y-27639D02*
X22164Y-27639D01*
X26457Y-28268D02*
X26280Y-28445D01*
X21149Y-27639D02*
X20985Y-27475D01*
X22047Y-27737D02*
X21949Y-27639D01*
X27278Y-28268D02*
X26457Y-28268D01*
X26280Y-26476D02*
X25788Y-25984D01*
X25098Y-32579D02*
X25394Y-32283D01*
X26771Y-29528D02*
X27278Y-29528D01*
X26476Y-31595D02*
X26476Y-29823D01*
X24901Y-34252D02*
X25098Y-34055D01*
X26476Y-29823D02*
X26771Y-29528D01*
X25394Y-32283D02*
X25788Y-32283D01*
X24114Y-34252D02*
X24901Y-34252D01*
X23606Y-33744D02*
X24114Y-34252D01*
X23606Y-33283D02*
X23606Y-33744D01*
X25098Y-34055D02*
X25098Y-32579D01*
X25788Y-32283D02*
X26476Y-31595D01*
X27278Y-29213D02*
X25610Y-29213D01*
X25610Y-29213D02*
X24606Y-30217D01*
X24606Y-30217D02*
X24606Y-31283D01*
X28268Y-30591D02*
X28150Y-30709D01*
X27381Y-30986D02*
X27381Y-31299D01*
X25606Y-33283D02*
X25606Y-33074D01*
X28268Y-30203D02*
X28268Y-30591D01*
X28150Y-30709D02*
X27658Y-30709D01*
X25606Y-33074D02*
X27381Y-31299D01*
X27658Y-30709D02*
X27381Y-30986D01*
X24606Y-32677D02*
X24606Y-33283D01*
X24114Y-30315D02*
X24114Y-32185D01*
X27278Y-28898D02*
X25531Y-28898D01*
X24114Y-32185D02*
X24606Y-32677D01*
X25531Y-28898D02*
X24114Y-30315D01*
X32579Y-24606D02*
X33090Y-24606D01*
X31778Y-25407D02*
X32579Y-24606D01*
X31778Y-26378D02*
X31778Y-25407D01*
X32165Y-26693D02*
X31778Y-26693D01*
X32283Y-26575D02*
X32165Y-26693D01*
X32283Y-25492D02*
X32283Y-26575D01*
X32480Y-25295D02*
X32283Y-25492D01*
X33090Y-25295D02*
X32480Y-25295D01*
X32503Y-26158D02*
X32677Y-25984D01*
X32677Y-25984D02*
X33090Y-25984D01*
X32244Y-27008D02*
X32503Y-26749D01*
X31778Y-27008D02*
X32244Y-27008D01*
X32503Y-26749D02*
X32503Y-26158D01*
X31778Y-27638D02*
X32814Y-27638D01*
X32814Y-27638D02*
X33090Y-27362D01*
X32972Y-26673D02*
X33090Y-26673D01*
X32322Y-27323D02*
X32972Y-26673D01*
X31778Y-27323D02*
X32322Y-27323D01*
X37598Y-21260D02*
X39173Y-19685D01*
X37204Y-27953D02*
X37598Y-27559D01*
X31778Y-27953D02*
X37204Y-27953D01*
X39173Y-19685D02*
X40945Y-19685D01*
X37598Y-27559D02*
X37598Y-21260D01*
X40945Y-23622D02*
X38386Y-23622D01*
X37481Y-28268D02*
X31778Y-28268D01*
X37992Y-27757D02*
X37481Y-28268D01*
X37992Y-24016D02*
X37992Y-27757D01*
X38386Y-23622D02*
X37992Y-24016D01*
X31778Y-28583D02*
X37952Y-28583D01*
X38976Y-27559D02*
X40945Y-27559D01*
X37952Y-28583D02*
X38976Y-27559D01*
X37795Y-30708D02*
X37992Y-30905D01*
X31778Y-28898D02*
X35985Y-28898D01*
X38583Y-31496D02*
X40945Y-31496D01*
X35985Y-28898D02*
X37795Y-30708D01*
X37992Y-30905D02*
X38583Y-31496D01*
X36615Y-25788D02*
X36615Y-25474D01*
X28464Y-31871D02*
X28248Y-32087D01*
X28032Y-27638D02*
X28051Y-27657D01*
X28898Y-29567D02*
X28937Y-29528D01*
X28898Y-30203D02*
X28898Y-29567D01*
G54D28*
X23838Y-28821D02*
X23721Y-28938D01*
G54D27*
X30788Y-26359D02*
X30807Y-26378D01*
X36615Y-25474D02*
X35944Y-24803D01*
X27971Y-24822D02*
X27971Y-24606D01*
X21989Y-31536D02*
X22047Y-31594D01*
X28268Y-25119D02*
X27971Y-24822D01*
X21949Y-26889D02*
X21949Y-26575D01*
X21949Y-26575D02*
X21949Y-26261D01*
G54D28*
X25606Y-31283D02*
X25606Y-30398D01*
G54D27*
X27971Y-24606D02*
X27381Y-24606D01*
X28268Y-26300D02*
X28346Y-26378D01*
X27165Y-24822D02*
X27165Y-24213D01*
X28268Y-25703D02*
X28268Y-25119D01*
X28642Y-33544D02*
X28642Y-34055D01*
X27278Y-27638D02*
X28032Y-27638D01*
X30788Y-25703D02*
X30788Y-26359D01*
X20571Y-31536D02*
X21989Y-31536D01*
X27165Y-24213D02*
X27264Y-24114D01*
X28937Y-31871D02*
X28464Y-31871D01*
G54D28*
X23838Y-28348D02*
X23838Y-28821D01*
X25606Y-30398D02*
X25787Y-30217D01*
G54D27*
X36615Y-27166D02*
X36615Y-26477D01*
X36615Y-26477D02*
X35728Y-26477D01*
X35728Y-26477D02*
X35630Y-26575D01*
X35944Y-24409D02*
X36614Y-24409D01*
X31909Y-30296D02*
X31890Y-30315D01*
X36615Y-26477D02*
X36615Y-25788D01*
X35944Y-24409D02*
X35944Y-24803D01*
X31778Y-30203D02*
X31890Y-30315D01*
X32677Y-30296D02*
X31909Y-30296D01*
X22755Y-26261D02*
X22835Y-26181D01*
X21949Y-26261D02*
X22755Y-26261D01*
X20985Y-26575D02*
X21635Y-26575D01*
X21989Y-31536D02*
X22047Y-31594D01*
X35531Y-33544D02*
X35531Y-34055D01*
X31778Y-30203D02*
X31778Y-29528D01*
X27381Y-24606D02*
X27165Y-24822D01*
X35944Y-24016D02*
X35944Y-24409D01*
X21635Y-26575D02*
X21949Y-26889D01*
X31674Y-24133D02*
X31693Y-24114D01*
X31004Y-24133D02*
X31674Y-24133D01*
X28268Y-25703D02*
X28268Y-26300D01*
X29213Y-30203D02*
X29213Y-30591D01*
X29528Y-30906D02*
X29528Y-32460D01*
X29862Y-32794D02*
X30237Y-33169D01*
X28642Y-32794D02*
X29862Y-32794D01*
X29528Y-32460D02*
X30237Y-33169D01*
X29213Y-30591D02*
X29528Y-30906D01*
X28839Y-23327D02*
X29843Y-24331D01*
X29843Y-24331D02*
X29843Y-25703D01*
X24508Y-23327D02*
X28839Y-23327D01*
X20866Y-19685D02*
X24508Y-23327D01*
X30158Y-25703D02*
X30158Y-22284D01*
X30158Y-22284D02*
X27559Y-19685D01*
X30473Y-25703D02*
X30473Y-23464D01*
X30473Y-23464D02*
X34252Y-19685D01*
X28583Y-25703D02*
X28583Y-24744D01*
X28583Y-24744D02*
X28721Y-24606D01*
X35118Y-24016D02*
X34744Y-24016D01*
X34154Y-24606D02*
X33840Y-24606D01*
X34744Y-24016D02*
X34154Y-24606D01*
X35118Y-24803D02*
X34646Y-24803D01*
X34154Y-25295D02*
X33840Y-25295D01*
X34646Y-24803D02*
X34154Y-25295D01*
X25335Y-27008D02*
X25100Y-26773D01*
X25100Y-26773D02*
X24588Y-26773D01*
X27278Y-27008D02*
X25335Y-27008D01*
X22933Y-29922D02*
X22933Y-27264D01*
X20571Y-30591D02*
X22264Y-30591D01*
X22933Y-27264D02*
X23424Y-26773D01*
X23424Y-26773D02*
X23838Y-26773D01*
X22264Y-30591D02*
X22933Y-29922D01*
X20571Y-30906D02*
X22441Y-30906D01*
X23228Y-30119D02*
X22441Y-30906D01*
X23621Y-27560D02*
X23228Y-27953D01*
X23228Y-27953D02*
X23228Y-30119D01*
X23621Y-27560D02*
X23838Y-27560D01*
X27278Y-27323D02*
X25334Y-27323D01*
X25097Y-27560D02*
X24588Y-27560D01*
X25334Y-27323D02*
X25097Y-27560D01*
X34646Y-27165D02*
X34037Y-27165D01*
X34037Y-27165D02*
X33840Y-27362D01*
X34646Y-25787D02*
X34037Y-25787D01*
X34037Y-25787D02*
X33840Y-25984D01*
X27278Y-27953D02*
X25590Y-27953D01*
X25195Y-28348D02*
X24588Y-28348D01*
X25590Y-27953D02*
X25195Y-28348D01*
X35531Y-32794D02*
X34312Y-32794D01*
X34312Y-32794D02*
X33937Y-33169D01*
X29528Y-30203D02*
X29528Y-30512D01*
X33937Y-32657D02*
X33937Y-33169D01*
X33170Y-31890D02*
X33937Y-32657D01*
X30906Y-31890D02*
X33170Y-31890D01*
X29528Y-30512D02*
X30906Y-31890D01*
X34646Y-26476D02*
X34037Y-26476D01*
X34037Y-26476D02*
X33840Y-26673D01*
G54D10*
G36*
X43257Y-21376D02*
X40945Y-20220D01*
X38633Y-21376D01*
X38633Y-17744D01*
X40760Y-16325D01*
X41129Y-16325D01*
X43257Y-17744D01*
X43257Y-21376D01*
X43257Y-21376D01*
G37*
G54D29*
X43257Y-21376D02*
X40945Y-20220D01*
X38633Y-21376D01*
X38633Y-17744D01*
X40760Y-16325D01*
X41129Y-16325D01*
X43257Y-17744D01*
X43257Y-21376D01*
G54D10*
G36*
X43257Y-25313D02*
X40945Y-24157D01*
X38633Y-25313D01*
X38633Y-21685D01*
X40945Y-20528D01*
X43257Y-21685D01*
X43257Y-25313D01*
X43257Y-25313D01*
G37*
G54D29*
X43257Y-25313D02*
X40945Y-24157D01*
X38633Y-25313D01*
X38633Y-21685D01*
X40945Y-20528D01*
X43257Y-21685D01*
X43257Y-25313D01*
G54D10*
G36*
X43257Y-29250D02*
X40945Y-28094D01*
X38633Y-29250D01*
X38633Y-25622D01*
X40945Y-24465D01*
X43257Y-25622D01*
X43257Y-29250D01*
X43257Y-29250D01*
G37*
G54D29*
X43257Y-29250D02*
X40945Y-28094D01*
X38633Y-29250D01*
X38633Y-25622D01*
X40945Y-24465D01*
X43257Y-25622D01*
X43257Y-29250D01*
G54D10*
G36*
X43257Y-33568D02*
X40945Y-32027D01*
X38633Y-33568D01*
X38633Y-29559D01*
X40945Y-28402D01*
X43257Y-29559D01*
X43257Y-33568D01*
X43257Y-33568D01*
G37*
G54D29*
X43257Y-33568D02*
X40945Y-32027D01*
X38633Y-33568D01*
X38633Y-29559D01*
X40945Y-28402D01*
X43257Y-29559D01*
X43257Y-33568D01*
M02*
