G04 (created by PCBNEW-RS274X (2012-jan-04)-stable) date Wed 25 Apr 2012 03:41:18 PM EEST*
G01*
G70*
G90*
%MOIN*%
G04 Gerber Fmt 3.4, Leading zero omitted, Abs format*
%FSLAX34Y34*%
G04 APERTURE LIST*
%ADD10C,0.006000*%
%ADD11C,0.035400*%
%ADD12C,0.055100*%
%ADD13C,0.011800*%
%ADD14C,0.010000*%
G04 APERTURE END LIST*
G54D10*
G54D11*
X19587Y-30040D03*
X19587Y-31772D03*
G54D12*
X26280Y-26476D03*
X26280Y-28445D03*
X27264Y-24114D03*
X28937Y-29528D03*
X35531Y-34055D03*
X28642Y-34055D03*
X23721Y-28938D03*
X28248Y-32087D03*
X25787Y-30217D03*
X31890Y-30315D03*
X35630Y-26575D03*
X30807Y-26378D03*
X22835Y-26181D03*
X36614Y-24409D03*
X18701Y-33858D03*
X28051Y-27657D03*
X28346Y-26378D03*
X22047Y-31594D03*
X31693Y-24114D03*
G54D13*
X26280Y-28445D02*
X26280Y-26476D01*
X22047Y-31594D02*
X20965Y-31594D01*
X20965Y-31594D02*
X18701Y-33858D01*
G54D10*
G36*
X37155Y-27341D02*
X36790Y-27706D01*
X33218Y-27705D01*
X33218Y-31743D01*
X35974Y-31743D01*
X35974Y-34265D01*
X26762Y-34265D01*
X26762Y-28542D01*
X26762Y-28350D01*
X26689Y-28173D01*
X26554Y-28037D01*
X26546Y-28033D01*
X26546Y-26887D01*
X26552Y-26885D01*
X26688Y-26750D01*
X26762Y-26573D01*
X26762Y-26381D01*
X26689Y-26204D01*
X26554Y-26068D01*
X26377Y-25994D01*
X26185Y-25994D01*
X26008Y-26067D01*
X25872Y-26202D01*
X25798Y-26379D01*
X25798Y-26571D01*
X25871Y-26748D01*
X26006Y-26884D01*
X26014Y-26887D01*
X26014Y-28033D01*
X26008Y-28036D01*
X25872Y-28171D01*
X25798Y-28348D01*
X25798Y-28540D01*
X25871Y-28717D01*
X26006Y-28853D01*
X26183Y-28927D01*
X26375Y-28927D01*
X26552Y-28854D01*
X26688Y-28719D01*
X26762Y-28542D01*
X26762Y-34265D01*
X19971Y-34265D01*
X19971Y-31849D01*
X19971Y-31696D01*
X19971Y-30117D01*
X19971Y-29964D01*
X19913Y-29823D01*
X19805Y-29715D01*
X19664Y-29656D01*
X19511Y-29656D01*
X19370Y-29714D01*
X19262Y-29822D01*
X19203Y-29963D01*
X19203Y-30116D01*
X19261Y-30257D01*
X19369Y-30365D01*
X19510Y-30424D01*
X19663Y-30424D01*
X19804Y-30366D01*
X19912Y-30258D01*
X19971Y-30117D01*
X19971Y-31696D01*
X19913Y-31555D01*
X19805Y-31447D01*
X19664Y-31388D01*
X19511Y-31388D01*
X19370Y-31446D01*
X19262Y-31554D01*
X19203Y-31695D01*
X19203Y-31848D01*
X19261Y-31989D01*
X19369Y-32097D01*
X19510Y-32156D01*
X19663Y-32156D01*
X19804Y-32098D01*
X19912Y-31990D01*
X19971Y-31849D01*
X19971Y-34265D01*
X17900Y-34265D01*
X17900Y-23672D01*
X37155Y-23672D01*
X37155Y-27341D01*
X37155Y-27341D01*
G37*
G54D14*
X37155Y-27341D02*
X36790Y-27706D01*
X33218Y-27705D01*
X33218Y-31743D01*
X35974Y-31743D01*
X35974Y-34265D01*
X26762Y-34265D01*
X26762Y-28542D01*
X26762Y-28350D01*
X26689Y-28173D01*
X26554Y-28037D01*
X26546Y-28033D01*
X26546Y-26887D01*
X26552Y-26885D01*
X26688Y-26750D01*
X26762Y-26573D01*
X26762Y-26381D01*
X26689Y-26204D01*
X26554Y-26068D01*
X26377Y-25994D01*
X26185Y-25994D01*
X26008Y-26067D01*
X25872Y-26202D01*
X25798Y-26379D01*
X25798Y-26571D01*
X25871Y-26748D01*
X26006Y-26884D01*
X26014Y-26887D01*
X26014Y-28033D01*
X26008Y-28036D01*
X25872Y-28171D01*
X25798Y-28348D01*
X25798Y-28540D01*
X25871Y-28717D01*
X26006Y-28853D01*
X26183Y-28927D01*
X26375Y-28927D01*
X26552Y-28854D01*
X26688Y-28719D01*
X26762Y-28542D01*
X26762Y-34265D01*
X19971Y-34265D01*
X19971Y-31849D01*
X19971Y-31696D01*
X19971Y-30117D01*
X19971Y-29964D01*
X19913Y-29823D01*
X19805Y-29715D01*
X19664Y-29656D01*
X19511Y-29656D01*
X19370Y-29714D01*
X19262Y-29822D01*
X19203Y-29963D01*
X19203Y-30116D01*
X19261Y-30257D01*
X19369Y-30365D01*
X19510Y-30424D01*
X19663Y-30424D01*
X19804Y-30366D01*
X19912Y-30258D01*
X19971Y-30117D01*
X19971Y-31696D01*
X19913Y-31555D01*
X19805Y-31447D01*
X19664Y-31388D01*
X19511Y-31388D01*
X19370Y-31446D01*
X19262Y-31554D01*
X19203Y-31695D01*
X19203Y-31848D01*
X19261Y-31989D01*
X19369Y-32097D01*
X19510Y-32156D01*
X19663Y-32156D01*
X19804Y-32098D01*
X19912Y-31990D01*
X19971Y-31849D01*
X19971Y-34265D01*
X17900Y-34265D01*
X17900Y-23672D01*
X37155Y-23672D01*
X37155Y-27341D01*
M02*
